<mxfile host="app.diagrams.net" agent="Mozilla/5.0 (Windows NT 10.0; Win64; x64) AppleWebKit/537.36 (KHTML, like Gecko) Chrome/131.0.0.0 Safari/537.36" version="26.0.3">
  <diagram name="第 1 页" id="9tvaZ_sKaDmFrAElX46q">
    <mxGraphModel grid="1" page="1" gridSize="10" guides="1" tooltips="1" connect="1" arrows="1" fold="1" pageScale="1" pageWidth="827" pageHeight="1169" math="0" shadow="0">
      <root>
        <mxCell id="0" />
        <mxCell id="1" parent="0" />
        <mxCell id="ONAX0kRqj3ftwdpPM8Ed-1" value="系統用例" style="text;html=1;align=center;verticalAlign=middle;whiteSpace=wrap;rounded=0;" vertex="1" parent="1">
          <mxGeometry y="10" width="60" height="30" as="geometry" />
        </mxCell>
        <mxCell id="ONAX0kRqj3ftwdpPM8Ed-2" value="" style="endArrow=none;html=1;rounded=0;" edge="1" parent="1">
          <mxGeometry width="50" height="50" relative="1" as="geometry">
            <mxPoint x="70" y="40" as="sourcePoint" />
            <mxPoint x="70" as="targetPoint" />
          </mxGeometry>
        </mxCell>
        <mxCell id="ONAX0kRqj3ftwdpPM8Ed-6" value="" style="endArrow=none;html=1;rounded=0;" edge="1" parent="1">
          <mxGeometry width="50" height="50" relative="1" as="geometry">
            <mxPoint y="40" as="sourcePoint" />
            <mxPoint x="70" y="40" as="targetPoint" />
          </mxGeometry>
        </mxCell>
        <mxCell id="ONAX0kRqj3ftwdpPM8Ed-7" value="安全管理員" style="shape=umlActor;verticalLabelPosition=bottom;verticalAlign=top;html=1;outlineConnect=0;" vertex="1" parent="1">
          <mxGeometry x="30" y="240" width="30" height="60" as="geometry" />
        </mxCell>
        <mxCell id="ONAX0kRqj3ftwdpPM8Ed-8" value="" style="whiteSpace=wrap;html=1;aspect=fixed;" vertex="1" parent="1">
          <mxGeometry x="90" y="30" width="480" height="480" as="geometry" />
        </mxCell>
        <mxCell id="ONAX0kRqj3ftwdpPM8Ed-10" value="品質檢查&lt;div&gt;標準配置&lt;/div&gt;" style="ellipse;whiteSpace=wrap;html=1;" vertex="1" parent="1">
          <mxGeometry x="110" y="40" width="110" height="50" as="geometry" />
        </mxCell>
        <mxCell id="ONAX0kRqj3ftwdpPM8Ed-11" value="電梯台帳&lt;div&gt;維護&lt;/div&gt;" style="ellipse;whiteSpace=wrap;html=1;" vertex="1" parent="1">
          <mxGeometry x="110" y="100" width="110" height="50" as="geometry" />
        </mxCell>
        <mxCell id="ONAX0kRqj3ftwdpPM8Ed-12" value="維保策略&lt;div&gt;配置&lt;/div&gt;" style="ellipse;whiteSpace=wrap;html=1;" vertex="1" parent="1">
          <mxGeometry x="110" y="160" width="110" height="50" as="geometry" />
        </mxCell>
        <mxCell id="ONAX0kRqj3ftwdpPM8Ed-13" value="檢查標準&lt;div&gt;配置&lt;/div&gt;" style="ellipse;whiteSpace=wrap;html=1;" vertex="1" parent="1">
          <mxGeometry x="110" y="230" width="110" height="50" as="geometry" />
        </mxCell>
        <mxCell id="ONAX0kRqj3ftwdpPM8Ed-14" value="檢查週期&lt;div&gt;配置&lt;/div&gt;" style="ellipse;whiteSpace=wrap;html=1;" vertex="1" parent="1">
          <mxGeometry x="110" y="300" width="110" height="50" as="geometry" />
        </mxCell>
        <mxCell id="ONAX0kRqj3ftwdpPM8Ed-15" value="審批工單" style="ellipse;whiteSpace=wrap;html=1;" vertex="1" parent="1">
          <mxGeometry x="110" y="370" width="110" height="50" as="geometry" />
        </mxCell>
        <mxCell id="ONAX0kRqj3ftwdpPM8Ed-16" value="處理工單" style="ellipse;whiteSpace=wrap;html=1;" vertex="1" parent="1">
          <mxGeometry x="110" y="440" width="110" height="50" as="geometry" />
        </mxCell>
        <mxCell id="ONAX0kRqj3ftwdpPM8Ed-17" value="處理工單" style="ellipse;whiteSpace=wrap;html=1;" vertex="1" parent="1">
          <mxGeometry x="450" y="40" width="110" height="50" as="geometry" />
        </mxCell>
        <mxCell id="ONAX0kRqj3ftwdpPM8Ed-18" value="推送工單" style="ellipse;whiteSpace=wrap;html=1;" vertex="1" parent="1">
          <mxGeometry x="450" y="100" width="110" height="50" as="geometry" />
        </mxCell>
        <mxCell id="ONAX0kRqj3ftwdpPM8Ed-19" value="訴求/報修" style="ellipse;whiteSpace=wrap;html=1;" vertex="1" parent="1">
          <mxGeometry x="450" y="160" width="110" height="50" as="geometry" />
        </mxCell>
        <mxCell id="ONAX0kRqj3ftwdpPM8Ed-20" value="評價工單" style="ellipse;whiteSpace=wrap;html=1;" vertex="1" parent="1">
          <mxGeometry x="450" y="230" width="110" height="50" as="geometry" />
        </mxCell>
        <mxCell id="ONAX0kRqj3ftwdpPM8Ed-21" value="審核工單" style="ellipse;whiteSpace=wrap;html=1;" vertex="1" parent="1">
          <mxGeometry x="450" y="300" width="110" height="50" as="geometry" />
        </mxCell>
        <mxCell id="ONAX0kRqj3ftwdpPM8Ed-22" value="抽查工單" style="ellipse;whiteSpace=wrap;html=1;" vertex="1" parent="1">
          <mxGeometry x="450" y="370" width="110" height="50" as="geometry" />
        </mxCell>
        <mxCell id="ONAX0kRqj3ftwdpPM8Ed-23" value="報表數據" style="ellipse;whiteSpace=wrap;html=1;" vertex="1" parent="1">
          <mxGeometry x="450" y="440" width="110" height="50" as="geometry" />
        </mxCell>
        <mxCell id="ONAX0kRqj3ftwdpPM8Ed-24" value="電梯監督" style="text;html=1;align=center;verticalAlign=middle;whiteSpace=wrap;rounded=0;" vertex="1" parent="1">
          <mxGeometry x="300" y="40" width="60" height="30" as="geometry" />
        </mxCell>
        <mxCell id="ONAX0kRqj3ftwdpPM8Ed-25" value="" style="endArrow=classic;html=1;rounded=0;" edge="1" parent="1">
          <mxGeometry width="50" height="50" relative="1" as="geometry">
            <mxPoint x="70" y="240" as="sourcePoint" />
            <mxPoint x="110" y="70" as="targetPoint" />
          </mxGeometry>
        </mxCell>
        <mxCell id="ONAX0kRqj3ftwdpPM8Ed-26" value="" style="endArrow=classic;html=1;rounded=0;" edge="1" parent="1">
          <mxGeometry width="50" height="50" relative="1" as="geometry">
            <mxPoint x="70" y="250" as="sourcePoint" />
            <mxPoint x="110" y="120" as="targetPoint" />
          </mxGeometry>
        </mxCell>
        <mxCell id="ONAX0kRqj3ftwdpPM8Ed-27" value="" style="endArrow=classic;html=1;rounded=0;entryX=-0.018;entryY=0.64;entryDx=0;entryDy=0;entryPerimeter=0;" edge="1" parent="1" target="ONAX0kRqj3ftwdpPM8Ed-12">
          <mxGeometry width="50" height="50" relative="1" as="geometry">
            <mxPoint x="70" y="260" as="sourcePoint" />
            <mxPoint x="120" y="210" as="targetPoint" />
          </mxGeometry>
        </mxCell>
        <mxCell id="ONAX0kRqj3ftwdpPM8Ed-28" value="" style="endArrow=classic;html=1;rounded=0;entryX=0;entryY=0.5;entryDx=0;entryDy=0;" edge="1" parent="1" target="ONAX0kRqj3ftwdpPM8Ed-13">
          <mxGeometry width="50" height="50" relative="1" as="geometry">
            <mxPoint x="70" y="270" as="sourcePoint" />
            <mxPoint x="120" y="220" as="targetPoint" />
          </mxGeometry>
        </mxCell>
        <mxCell id="ONAX0kRqj3ftwdpPM8Ed-29" value="" style="endArrow=classic;html=1;rounded=0;entryX=0;entryY=0.5;entryDx=0;entryDy=0;" edge="1" parent="1" target="ONAX0kRqj3ftwdpPM8Ed-14">
          <mxGeometry width="50" height="50" relative="1" as="geometry">
            <mxPoint x="70" y="280" as="sourcePoint" />
            <mxPoint x="120" y="230" as="targetPoint" />
          </mxGeometry>
        </mxCell>
        <mxCell id="ONAX0kRqj3ftwdpPM8Ed-30" value="" style="endArrow=classic;html=1;rounded=0;entryX=0;entryY=0.5;entryDx=0;entryDy=0;" edge="1" parent="1" target="ONAX0kRqj3ftwdpPM8Ed-15">
          <mxGeometry width="50" height="50" relative="1" as="geometry">
            <mxPoint x="70" y="290" as="sourcePoint" />
            <mxPoint x="110" y="280" as="targetPoint" />
          </mxGeometry>
        </mxCell>
        <mxCell id="ONAX0kRqj3ftwdpPM8Ed-31" value="" style="endArrow=classic;html=1;rounded=0;entryX=0.055;entryY=0.7;entryDx=0;entryDy=0;entryPerimeter=0;" edge="1" parent="1" target="ONAX0kRqj3ftwdpPM8Ed-16">
          <mxGeometry width="50" height="50" relative="1" as="geometry">
            <mxPoint x="70" y="300" as="sourcePoint" />
            <mxPoint x="100" y="330" as="targetPoint" />
          </mxGeometry>
        </mxCell>
        <mxCell id="ONAX0kRqj3ftwdpPM8Ed-33" value="維保工方" style="shape=umlActor;verticalLabelPosition=bottom;verticalAlign=top;html=1;outlineConnect=0;" vertex="1" parent="1">
          <mxGeometry x="630" y="30" width="30" height="60" as="geometry" />
        </mxCell>
        <mxCell id="ONAX0kRqj3ftwdpPM8Ed-35" value="" style="endArrow=classic;html=1;rounded=0;entryX=1;entryY=0.5;entryDx=0;entryDy=0;" edge="1" parent="1" target="ONAX0kRqj3ftwdpPM8Ed-17">
          <mxGeometry width="50" height="50" relative="1" as="geometry">
            <mxPoint x="610" y="60" as="sourcePoint" />
            <mxPoint x="660" y="10" as="targetPoint" />
          </mxGeometry>
        </mxCell>
        <mxCell id="ONAX0kRqj3ftwdpPM8Ed-36" value="第三方電梯系統" style="rounded=0;whiteSpace=wrap;html=1;fillColor=#ffe6cc;strokeColor=#d79b00;" vertex="1" parent="1">
          <mxGeometry x="590" y="120" width="120" height="40" as="geometry" />
        </mxCell>
        <mxCell id="ONAX0kRqj3ftwdpPM8Ed-37" value="" style="endArrow=classic;html=1;rounded=0;entryX=1;entryY=0.5;entryDx=0;entryDy=0;exitX=0;exitY=0.5;exitDx=0;exitDy=0;" edge="1" parent="1" source="ONAX0kRqj3ftwdpPM8Ed-36" target="ONAX0kRqj3ftwdpPM8Ed-18">
          <mxGeometry width="50" height="50" relative="1" as="geometry">
            <mxPoint x="730" y="220" as="sourcePoint" />
            <mxPoint x="780" y="170" as="targetPoint" />
          </mxGeometry>
        </mxCell>
        <mxCell id="ONAX0kRqj3ftwdpPM8Ed-38" value="管家/工程人員" style="shape=umlActor;verticalLabelPosition=bottom;verticalAlign=top;html=1;outlineConnect=0;" vertex="1" parent="1">
          <mxGeometry x="630" y="210" width="30" height="60" as="geometry" />
        </mxCell>
        <mxCell id="ONAX0kRqj3ftwdpPM8Ed-40" value="" style="endArrow=classic;html=1;rounded=0;entryX=1;entryY=0.5;entryDx=0;entryDy=0;" edge="1" parent="1" target="ONAX0kRqj3ftwdpPM8Ed-19">
          <mxGeometry width="50" height="50" relative="1" as="geometry">
            <mxPoint x="620" y="250" as="sourcePoint" />
            <mxPoint x="740" y="310" as="targetPoint" />
          </mxGeometry>
        </mxCell>
        <mxCell id="ONAX0kRqj3ftwdpPM8Ed-41" value="區域負責人" style="shape=umlActor;verticalLabelPosition=bottom;verticalAlign=top;html=1;outlineConnect=0;" vertex="1" parent="1">
          <mxGeometry x="630" y="330" width="30" height="60" as="geometry" />
        </mxCell>
        <mxCell id="ONAX0kRqj3ftwdpPM8Ed-42" value="總部監管員" style="shape=umlActor;verticalLabelPosition=bottom;verticalAlign=top;html=1;outlineConnect=0;" vertex="1" parent="1">
          <mxGeometry x="640" y="440" width="30" height="60" as="geometry" />
        </mxCell>
        <mxCell id="ONAX0kRqj3ftwdpPM8Ed-45" value="" style="endArrow=classic;html=1;rounded=0;entryX=1;entryY=0.5;entryDx=0;entryDy=0;" edge="1" parent="1" target="ONAX0kRqj3ftwdpPM8Ed-20">
          <mxGeometry width="50" height="50" relative="1" as="geometry">
            <mxPoint x="620" y="340" as="sourcePoint" />
            <mxPoint x="670" y="290" as="targetPoint" />
          </mxGeometry>
        </mxCell>
        <mxCell id="ONAX0kRqj3ftwdpPM8Ed-46" value="" style="endArrow=classic;html=1;rounded=0;entryX=1;entryY=0.5;entryDx=0;entryDy=0;" edge="1" parent="1" target="ONAX0kRqj3ftwdpPM8Ed-21">
          <mxGeometry width="50" height="50" relative="1" as="geometry">
            <mxPoint x="620" y="370" as="sourcePoint" />
            <mxPoint x="660" y="270" as="targetPoint" />
          </mxGeometry>
        </mxCell>
        <mxCell id="ONAX0kRqj3ftwdpPM8Ed-47" value="" style="endArrow=classic;html=1;rounded=0;entryX=1;entryY=0.5;entryDx=0;entryDy=0;" edge="1" parent="1" target="ONAX0kRqj3ftwdpPM8Ed-22">
          <mxGeometry width="50" height="50" relative="1" as="geometry">
            <mxPoint x="620" y="470" as="sourcePoint" />
            <mxPoint x="670" y="420" as="targetPoint" />
          </mxGeometry>
        </mxCell>
        <mxCell id="ONAX0kRqj3ftwdpPM8Ed-48" value="" style="endArrow=classic;html=1;rounded=0;entryX=1;entryY=0.5;entryDx=0;entryDy=0;" edge="1" parent="1" target="ONAX0kRqj3ftwdpPM8Ed-23">
          <mxGeometry width="50" height="50" relative="1" as="geometry">
            <mxPoint x="620" y="470" as="sourcePoint" />
            <mxPoint x="670" y="420" as="targetPoint" />
          </mxGeometry>
        </mxCell>
      </root>
    </mxGraphModel>
  </diagram>
</mxfile>
